<?xml version="1.0" standalone="no"?>
<!DOCTYPE svg PUBLIC "-//W3C//DTD SVG 20010904//EN"
 "http://www.w3.org/TR/2001/REC-SVG-20010904/DTD/svg10.dtd">
<svg version="1.0" xmlns="http://www.w3.org/2000/svg"
 width="300.000000pt" height="300.000000pt" viewBox="0 0 300.000000 300.000000"
 preserveAspectRatio="xMidYMid meet">
<metadata>
Created by potrace 1.10, written by Peter Selinger 2001-2011
</metadata>
<g transform="translate(0.000000,300.000000) scale(0.100000,-0.100000)"
fill="#000000" stroke="none">
<path d="M1514 2535 c-8 -19 12 -36 33 -28 19 7 12 37 -10 41 -9 2 -20 -4 -23
-13z"/>
<path d="M1586 2463 c6 -39 5 -43 -15 -43 -14 0 -21 6 -21 20 0 11 -7 20 -15
20 -8 0 -15 -9 -15 -20 0 -14 -7 -20 -21 -20 -18 0 -21 5 -17 33 l3 32 -80 -4
c-79 -3 -105 -12 -105 -36 0 -6 -19 -18 -42 -25 -50 -14 -125 -51 -181 -88
-36 -24 -46 -26 -132 -23 -136 4 -135 5 -135 -134 0 -113 0 -114 -39 -187 -49
-91 -88 -215 -73 -230 13 -13 12 -14 36 73 9 30 28 82 43 115 l28 59 3 -117
c2 -96 5 -118 17 -118 8 0 20 -9 27 -20 7 -11 15 -20 18 -20 3 0 4 114 2 252
l-3 253 216 0 215 0 0 -107 0 -107 -55 -20 c-63 -24 -159 -41 -228 -41 l-48 0
1 -181 2 -181 -164 1 c-119 1 -168 -2 -181 -11 -15 -11 -17 -34 -18 -190 -1
-130 2 -182 11 -193 10 -12 46 -15 216 -15 136 0 204 -4 204 -10 0 -22 69
-118 121 -169 56 -55 147 -111 221 -137 l45 -15 -10 -38 c-20 -75 30 -141 112
-149 45 -4 52 -2 87 31 35 32 39 40 39 84 0 26 -3 54 -5 61 -3 8 14 20 48 32
121 43 227 127 297 234 l49 76 196 0 c139 0 199 3 208 12 17 17 17 499 0 516
-8 8 -64 12 -185 12 l-173 0 0 35 0 35 108 0 c71 0 112 4 120 12 9 9 12 6 12
-14 0 -26 16 -46 27 -35 2 3 -2 30 -11 60 -11 40 -16 97 -16 204 0 103 -4 153
-12 161 -7 7 -43 12 -91 12 l-79 0 -60 55 c-70 65 -186 135 -263 160 -30 9
-55 21 -55 25 0 26 -34 40 -99 40 -40 0 -72 5 -80 13 -10 10 -11 4 -5 -30z
m-118 -25 c-3 -8 -27 -14 -61 -16 l-57 -3 0 -188 c0 -159 -2 -190 -15 -195
-13 -5 -15 21 -15 198 0 111 3 206 7 209 3 4 37 7 76 7 50 0 68 -3 65 -12z
m274 -185 c1 -109 2 -205 2 -214 0 -11 6 -15 18 -11 10 2 18 0 18 -6 0 -6 3
-17 6 -26 8 -22 -20 -21 -57 1 -31 18 -40 39 -13 29 12 -5 15 -2 10 10 -3 8
-6 98 -6 199 l0 184 -57 3 c-34 2 -58 8 -61 16 -3 9 15 12 67 12 l71 0 2 -197z
m-442 105 l0 -53 -110 -1 c-61 0 -110 1 -110 2 0 7 195 100 218 104 1 0 2 -24
2 -52z m400 -115 c0 -89 3 -169 7 -178 6 -16 4 -16 -20 0 -24 15 -27 24 -27
72 0 51 -3 58 -39 94 -33 33 -45 39 -81 39 -83 0 -143 -70 -137 -158 1 -26 -4
-38 -20 -49 l-23 -15 0 174 c0 96 2 177 4 179 2 2 79 4 170 4 l166 0 0 -162z
m239 91 c25 -15 75 -50 111 -78 l64 -51 -159 -3 c-96 -1 -164 -7 -172 -13 -10
-9 -13 -3 -13 30 0 39 1 40 26 31 32 -12 44 -13 44 -1 0 5 -16 15 -35 21 l-35
12 0 63 0 64 61 -24 c34 -14 82 -36 108 -51z m-639 -69 c0 -13 -31 -15 -219
-15 l-218 0 -7 -31 c-3 -17 -6 -123 -6 -236 0 -134 -3 -202 -10 -198 -11 7
-14 477 -3 488 3 4 109 7 235 7 196 0 228 -2 228 -15z m280 -30 c40 -21 60
-53 60 -98 l0 -39 -53 44 -52 45 -50 -43 c-40 -36 -51 -41 -58 -29 -11 21 8
77 36 102 39 36 73 41 117 18z m716 -230 c1 -102 -2 -172 -8 -176 -5 -3 -51
-5 -101 -3 l-92 4 -3 30 c-3 24 4 37 27 59 53 50 39 133 -28 161 -60 24 -133
-23 -133 -86 0 -25 -2 -26 -47 -19 -25 4 -61 13 -78 20 l-33 14 0 79 c0 43 3
82 7 86 4 3 115 5 247 4 l240 -3 2 -170z m-572 -40 c97 -47 194 -75 265 -75
l43 0 -4 -272 c-5 -261 -6 -276 -30 -340 -34 -91 -79 -157 -149 -222 -50 -47
-167 -116 -195 -116 -5 0 -9 23 -9 50 l0 50 37 0 c36 0 38 2 97 100 34 56 61
103 61 105 0 3 -38 5 -85 5 l-85 0 0 249 0 250 -67 136 -67 137 -68 -137 -68
-137 0 -249 0 -249 -86 0 c-47 0 -84 -3 -82 -8 2 -4 29 -51 62 -105 57 -94 60
-97 95 -97 l36 0 0 -50 c0 -27 -4 -50 -9 -50 -4 0 -38 14 -75 32 -89 42 -197
149 -238 238 -46 97 -53 151 -56 426 l-2 252 62 6 c132 14 294 82 381 162 l47
42 49 -45 c27 -24 90 -64 140 -88z m374 89 c35 -24 44 -59 27 -99 -14 -36 -38
-48 -33 -17 3 14 -7 18 -57 22 -53 4 -60 8 -63 28 -4 29 48 82 80 82 13 0 34
-7 46 -16z m-459 -551 l1 -253 -105 0 -105 0 0 244 0 245 36 78 c20 43 43 94
51 113 l15 35 54 -105 53 -105 0 -252z m610 179 c7 -16 37 -53 67 -83 l54 -53
0 -63 c0 -51 -4 -66 -21 -80 -11 -10 -35 -33 -54 -50 -33 -32 -36 -33 -123
-33 l-89 0 7 47 c4 25 5 54 3 64 -5 16 -2 17 26 6 17 -6 31 -17 31 -24 0 -7 7
-13 15 -13 8 0 15 6 15 13 0 7 10 17 23 22 32 15 30 56 -5 73 -17 8 -28 21
-28 33 0 21 10 25 27 8 6 -6 16 -8 23 -4 14 9 -6 35 -26 35 -8 0 -14 7 -14 15
0 8 -7 15 -15 15 -8 0 -15 -6 -15 -14 0 -7 -9 -16 -20 -19 -15 -4 -20 -14 -20
-36 0 -20 7 -34 20 -41 24 -13 28 -55 4 -46 -9 3 -22 6 -30 6 -12 0 -14 21
-12 125 l3 125 71 0 c69 0 72 -1 83 -28z m179 -214 l-3 -243 -186 -2 -186 -2
15 44 14 45 97 -2 96 -3 29 33 c15 18 39 35 52 38 19 5 24 14 30 60 8 69 -2
125 -27 142 -24 17 -99 110 -99 123 0 5 38 9 85 9 l85 0 -2 -242z m-1458 40
l0 -63 -146 3 c-95 2 -150 0 -157 -7 -8 -8 34 -11 146 -11 177 0 159 10 172
-93 4 -26 13 -63 20 -81 l14 -33 -192 1 -192 1 -3 150 c-1 83 0 160 3 173 5
22 7 22 170 22 l165 0 0 -62z m1190 32 c0 -11 -7 -20 -15 -20 -8 0 -15 9 -15
20 0 11 7 20 15 20 8 0 15 -9 15 -20z m-119 -292 c-4 -17 -12 -33 -20 -36 -10
-3 -11 2 -6 19 7 22 23 49 30 49 1 0 0 -14 -4 -32z m-311 -64 c0 -2 -12 -22
-26 -44 l-27 -40 -141 0 -141 0 -27 44 c-16 24 -28 45 -28 47 0 2 88 3 195 1
107 -2 195 -5 195 -8z m-100 -135 c0 -6 -6 -9 -14 -6 -8 3 -16 2 -18 -2 -4
-10 -103 -61 -118 -61 -5 0 -10 14 -10 30 0 30 1 30 54 30 30 0 58 5 61 10 8
14 45 13 45 -1z m-10 -109 l0 -59 -34 20 c-32 19 -37 19 -71 4 -46 -19 -45
-19 -45 4 0 14 11 23 38 32 20 7 53 22 72 35 19 13 36 23 38 23 1 1 2 -26 2
-59z m-167 -46 c26 -35 12 -44 -18 -12 -13 14 -21 29 -18 32 10 10 17 6 36
-20z m133 -70 c19 -28 11 -59 -21 -80 -47 -31 -109 21 -86 72 21 46 79 51 107
8z"/>
<path d="M1410 2360 c0 -6 48 -10 125 -10 77 0 125 4 125 10 0 6 -48 10 -125
10 -77 0 -125 -4 -125 -10z"/>
<path d="M1473 2313 c37 -2 96 -2 130 0 34 2 4 3 -68 3 -71 0 -99 -1 -62 -3z"/>
<path d="M1843 2139 c-3 -10 -9 -19 -14 -19 -5 0 -9 -4 -9 -10 0 -20 31 -9 42
15 l11 25 170 0 c169 0 169 0 189 -25 24 -31 40 -32 36 -2 -2 13 -10 22 -20
22 -9 0 -20 4 -24 8 -5 4 -91 7 -192 7 -173 -2 -185 -3 -189 -21z"/>
<path d="M2237 1877 c-2 -6 1 -17 8 -23 9 -9 14 -7 23 6 6 10 8 21 5 24 -11
10 -31 7 -36 -7z"/>
<path d="M1480 1999 c-62 -52 -214 -115 -320 -133 -43 -7 -76 -18 -78 -25 -3
-9 0 -11 8 -6 7 4 29 10 49 12 20 2 54 9 76 15 22 5 49 12 59 14 39 7 184 86
211 114 33 35 31 38 -5 9z"/>
<path d="M1544 1565 c0 -148 2 -211 3 -138 2 72 2 194 0 270 -1 76 -3 17 -3
-132z"/>
<path d="M2120 1690 c0 -5 14 -10 30 -10 17 0 30 5 30 10 0 6 -13 10 -30 10
-16 0 -30 -4 -30 -10z"/>
<path d="M2354 1644 c9 -36 11 -38 28 -27 10 6 8 13 -11 31 l-24 24 7 -28z"/>
<path d="M2370 1333 c-22 -8 -50 -35 -62 -58 -9 -17 -7 -16 12 4 13 13 38 30
56 37 46 19 41 34 -6 17z"/>
<path d="M662 1526 c3 -14 0 -27 -6 -29 -6 -3 61 -5 148 -6 88 -1 157 2 153 6
-16 15 -63 18 -170 8 l-87 -7 2 23 c2 19 -2 25 -21 27 -21 3 -23 0 -19 -22z"/>
<path d="M810 1370 c-11 -7 2 -10 43 -10 36 0 56 4 52 10 -8 13 -75 13 -95 0z"/>
<path d="M660 1340 c0 -6 36 -10 89 -10 50 0 93 5 96 10 4 6 -28 10 -89 10
-57 0 -96 -4 -96 -10z"/>
<path d="M660 1280 c8 -6 72 -10 142 -9 69 1 131 -1 136 -5 5 -3 18 1 28 9 17
13 -1 14 -151 15 -116 0 -165 -3 -155 -10z"/>
<path d="M915 2150 c4 -6 75 -10 181 -10 109 0 174 4 174 10 0 6 -67 10 -181
10 -117 0 -178 -3 -174 -10z"/>
<path d="M915 2100 c-4 -7 57 -10 174 -10 114 0 181 4 181 10 0 6 -65 10 -174
10 -106 0 -177 -4 -181 -10z"/>
<path d="M915 2050 c-4 -6 42 -10 130 -10 88 0 134 4 130 10 -4 6 -58 10 -130
10 -72 0 -126 -4 -130 -10z"/>
<path d="M910 2000 c0 -6 33 -10 79 -10 44 0 83 5 86 10 4 6 -25 10 -79 10
-51 0 -86 -4 -86 -10z"/>
<path d="M597 1856 c-7 -17 18 -40 33 -31 5 3 10 15 10 26 0 23 -35 27 -43 5z"/>
<path d="M2434 1849 c-3 -6 -1 -16 5 -22 9 -9 14 -8 21 3 9 15 4 30 -10 30 -5
0 -12 -5 -16 -11z"/>
<path d="M703 1643 c37 -2 97 -2 135 0 37 2 6 3 -68 3 -74 0 -105 -1 -67 -3z"/>
<path d="M748 1109 l-33 -31 35 27 c31 25 40 27 94 22 37 -3 54 -2 45 4 -8 5
-35 9 -61 9 -40 0 -53 -5 -80 -31z"/>
<path d="M913 1011 c-111 -70 -67 -247 64 -258 57 -5 102 19 133 69 34 56 20
128 -34 177 -36 34 -118 40 -163 12z m117 -16 c44 -23 70 -62 70 -107 0 -32
-7 -47 -34 -74 -28 -28 -42 -34 -76 -34 -34 0 -48 6 -76 34 -59 59 -45 149 29
181 41 18 52 18 87 0z"/>
<path d="M963 953 c-34 -23 -29 -51 12 -69 19 -8 35 -19 35 -25 0 -7 -12 -9
-35 -5 -41 8 -46 -5 -9 -29 25 -16 26 -16 49 9 27 29 24 52 -8 62 -12 3 -28
11 -35 17 -19 15 7 28 31 15 28 -14 34 -1 9 22 -25 23 -21 23 -49 3z"/>
<path d="M2023 1010 c-89 -54 -83 -199 10 -243 99 -47 201 15 201 123 0 28 -7
58 -18 74 -41 63 -131 84 -193 46z m112 -14 c38 -16 75 -68 75 -104 0 -58 -52
-112 -108 -112 -130 0 -166 163 -47 216 38 17 39 17 80 0z"/>
<path d="M2080 960 c0 -5 -6 -10 -14 -10 -16 0 -29 -27 -20 -41 3 -5 18 -16
35 -24 16 -9 29 -20 29 -25 0 -14 -37 -13 -46 1 -4 8 -10 7 -18 -1 -8 -9 -8
-14 2 -17 7 -3 19 -12 28 -20 14 -14 18 -13 40 7 32 31 30 46 -8 66 -42 21
-41 21 -33 33 4 8 12 8 26 1 31 -17 45 0 18 21 -27 21 -39 24 -39 9z"/>
<path d="M683 953 c26 -2 68 -2 95 0 26 2 4 3 -48 3 -52 0 -74 -1 -47 -3z"/>
<path d="M1230 846 c0 -12 47 -36 71 -36 21 0 6 18 -26 33 -43 21 -45 21 -45
3z"/>
<path d="M1798 844 c-28 -15 -38 -34 -18 -34 21 0 71 31 65 40 -8 13 -15 12
-47 -6z"/>
<path d="M1290 595 c0 -19 -4 -26 -14 -22 -22 9 -48 -17 -48 -48 0 -36 22 -53
62 -47 29 4 30 6 32 58 0 30 1 60 2 66 1 7 -7 14 -16 16 -14 3 -18 -3 -18 -23z
m0 -64 c0 -11 -4 -22 -8 -25 -14 -9 -35 12 -29 28 9 23 37 20 37 -3z"/>
<path d="M1734 612 c-15 -10 -12 -132 3 -132 7 0 13 24 15 66 3 67 0 78 -18
66z"/>
<path d="M1943 613 c-7 -3 -13 -14 -13 -25 0 -13 -5 -18 -14 -15 -26 10 -48
-16 -44 -53 3 -33 5 -35 45 -38 l41 -3 4 66 c3 69 1 75 -19 68z m-10 -77 c8
-20 -20 -43 -35 -28 -14 14 -3 42 16 42 7 0 16 -6 19 -14z"/>
<path d="M1000 545 l0 -65 50 0 c55 0 73 17 52 50 -6 9 -7 23 -2 30 17 28 -8
50 -55 50 l-45 0 0 -65z m73 20 c-4 -15 -36 -12 -41 3 -3 9 3 13 19 10 13 -1
23 -7 22 -13z m5 -47 c-3 -7 -13 -13 -23 -13 -10 0 -20 6 -22 13 -3 7 5 12 22
12 17 0 25 -5 23 -12z"/>
<path d="M1610 545 l0 -65 44 0 c51 0 73 18 57 48 -5 10 -7 29 -4 41 7 29 -10
41 -59 41 l-38 0 0 -65z m78 -27 c-7 -20 -48 -23 -48 -4 0 11 9 16 26 16 16 0
24 -5 22 -12z"/>
<path d="M1546 578 c-3 -13 -1 -24 4 -26 6 -2 10 -19 10 -37 0 -21 6 -35 16
-39 24 -9 30 2 16 24 -14 24 -16 47 -2 52 16 5 -1 48 -20 48 -10 0 -20 -10
-24 -22z"/>
<path d="M1127 573 c-4 -3 -7 -23 -7 -44 0 -40 28 -68 53 -52 6 4 19 6 29 5
13 -2 16 6 16 48 1 36 -3 50 -13 50 -9 0 -15 -14 -17 -37 -2 -26 -8 -38 -18
-38 -10 0 -16 12 -18 38 -3 35 -11 45 -25 30z"/>
<path d="M1349 559 c-23 -23 -24 -42 -3 -64 11 -11 25 -14 41 -10 17 4 23 2
18 -6 -4 -6 -19 -9 -36 -5 -34 7 -47 -9 -20 -23 26 -15 56 -14 69 2 5 6 12 36
13 66 l4 54 -34 2 c-22 2 -39 -3 -52 -16z m55 -24 c3 -9 -1 -18 -10 -22 -19
-7 -39 11 -30 26 10 16 33 13 40 -4z"/>
<path d="M1460 560 c-11 -11 -20 -27 -20 -35 0 -19 35 -55 54 -55 15 0 43 29
30 31 -5 1 -16 1 -26 0 -9 -1 -19 3 -23 9 -4 6 7 10 29 10 20 0 36 5 36 10 0
13 -37 50 -50 50 -5 0 -19 -9 -30 -20z"/>
<path d="M1774 563 c-19 -19 -18 -58 2 -77 17 -18 30 -20 38 -7 3 5 15 7 25 4
17 -4 19 1 19 44 l1 48 -36 1 c-19 0 -41 -6 -49 -13z m53 -29 c8 -21 -13 -42
-28 -27 -13 13 -5 43 11 43 6 0 13 -7 17 -16z"/>
<path d="M1987 562 c-21 -23 -22 -56 -1 -76 18 -19 28 -20 55 -5 26 14 14 31
-17 23 -14 -4 -24 -2 -24 5 0 6 16 11 35 11 40 0 44 11 15 40 -25 25 -42 25
-63 2z"/>
</g>
</svg>
